<mxfile host="app.diagrams.net" modified="2020-07-31T03:16:10.305Z" agent="5.0 (Windows NT 10.0; Win64; x64) AppleWebKit/537.36 (KHTML, like Gecko) Chrome/84.0.4147.105 Safari/537.36" etag="ZIKc3UKQYSmLhmcYBcCb" version="13.5.5" type="github">
  <diagram name="Page-1" id="e56a1550-8fbb-45ad-956c-1786394a9013">
    <mxGraphModel dx="1221" dy="645" grid="1" gridSize="10" guides="1" tooltips="1" connect="1" arrows="1" fold="1" page="1" pageScale="1" pageWidth="1100" pageHeight="850" background="#ffffff" math="0" shadow="0">
      <root>
        <mxCell id="0" />
        <mxCell id="1" parent="0" />
        <mxCell id="k3zc3vzF9cJD3p0FZX6q-2" value="Customer" style="rounded=1;whiteSpace=wrap;html=1;" vertex="1" parent="1">
          <mxGeometry x="130" y="150" width="120" height="60" as="geometry" />
        </mxCell>
        <mxCell id="k3zc3vzF9cJD3p0FZX6q-3" value="Discount Range" style="rounded=1;whiteSpace=wrap;html=1;" vertex="1" parent="1">
          <mxGeometry x="800" y="200" width="120" height="60" as="geometry" />
        </mxCell>
        <mxCell id="k3zc3vzF9cJD3p0FZX6q-4" value="Customer Type&lt;br&gt;- Regular&lt;br&gt;- Premium" style="rounded=1;whiteSpace=wrap;html=1;" vertex="1" parent="1">
          <mxGeometry x="340" y="140" width="120" height="60" as="geometry" />
        </mxCell>
        <mxCell id="k3zc3vzF9cJD3p0FZX6q-5" value="Billing Amount&lt;br&gt;/ Purchase Amount" style="rounded=1;whiteSpace=wrap;html=1;arcSize=14;" vertex="1" parent="1">
          <mxGeometry x="730" y="130" width="120" height="60" as="geometry" />
        </mxCell>
        <mxCell id="k3zc3vzF9cJD3p0FZX6q-6" value="Country&lt;br&gt;- INDIA&lt;br&gt;- USA&lt;br&gt;- CANADA" style="rounded=1;whiteSpace=wrap;html=1;" vertex="1" parent="1">
          <mxGeometry x="530" y="130" width="120" height="60" as="geometry" />
        </mxCell>
        <mxCell id="k3zc3vzF9cJD3p0FZX6q-20" value="Int&lt;br&gt;long&lt;br&gt;float&lt;br&gt;double&lt;br&gt;boolean&lt;br&gt;ADT&lt;br&gt;Class&lt;br&gt;Interface&lt;br&gt;Enum&lt;br&gt;ArrayList&lt;br&gt;Map&lt;br&gt;Set" style="text;html=1;strokeColor=none;fillColor=none;align=center;verticalAlign=middle;whiteSpace=wrap;rounded=0;" vertex="1" parent="1">
          <mxGeometry x="830" y="360" width="100" height="210" as="geometry" />
        </mxCell>
        <mxCell id="k3zc3vzF9cJD3p0FZX6q-12" value="Customer" style="swimlane;fontStyle=1;align=center;verticalAlign=top;childLayout=stackLayout;horizontal=1;startSize=26;horizontalStack=0;resizeParent=1;resizeParentMax=0;resizeLast=0;collapsible=1;marginBottom=0;" vertex="1" parent="1">
          <mxGeometry x="30" y="280" width="190" height="170" as="geometry" />
        </mxCell>
        <mxCell id="k3zc3vzF9cJD3p0FZX6q-13" value="+ customerType: CustomerType&#xa;+ country : Country" style="text;strokeColor=none;fillColor=none;align=left;verticalAlign=top;spacingLeft=4;spacingRight=4;overflow=hidden;rotatable=0;points=[[0,0.5],[1,0.5]];portConstraint=eastwest;" vertex="1" parent="k3zc3vzF9cJD3p0FZX6q-12">
          <mxGeometry y="26" width="190" height="64" as="geometry" />
        </mxCell>
        <mxCell id="k3zc3vzF9cJD3p0FZX6q-14" value="" style="line;strokeWidth=1;fillColor=none;align=left;verticalAlign=middle;spacingTop=-1;spacingLeft=3;spacingRight=3;rotatable=0;labelPosition=right;points=[];portConstraint=eastwest;" vertex="1" parent="k3zc3vzF9cJD3p0FZX6q-12">
          <mxGeometry y="90" width="190" height="8" as="geometry" />
        </mxCell>
        <mxCell id="k3zc3vzF9cJD3p0FZX6q-15" value="+ getters: enum&#xa;+ setters(enum): void" style="text;strokeColor=none;fillColor=none;align=left;verticalAlign=top;spacingLeft=4;spacingRight=4;overflow=hidden;rotatable=0;points=[[0,0.5],[1,0.5]];portConstraint=eastwest;" vertex="1" parent="k3zc3vzF9cJD3p0FZX6q-12">
          <mxGeometry y="98" width="190" height="72" as="geometry" />
        </mxCell>
        <mxCell id="k3zc3vzF9cJD3p0FZX6q-16" value="Discount Range" style="swimlane;fontStyle=1;align=center;verticalAlign=top;childLayout=stackLayout;horizontal=1;startSize=26;horizontalStack=0;resizeParent=1;resizeParentMax=0;resizeLast=0;collapsible=1;marginBottom=0;" vertex="1" parent="1">
          <mxGeometry x="280" y="300" width="240" height="170" as="geometry" />
        </mxCell>
        <mxCell id="k3zc3vzF9cJD3p0FZX6q-17" value="+ amountRange: PurchaseAmountRange&#xa;+ customerType: CustomerType&#xa;+ discount: double" style="text;strokeColor=none;fillColor=none;align=left;verticalAlign=top;spacingLeft=4;spacingRight=4;overflow=hidden;rotatable=0;points=[[0,0.5],[1,0.5]];portConstraint=eastwest;" vertex="1" parent="k3zc3vzF9cJD3p0FZX6q-16">
          <mxGeometry y="26" width="240" height="64" as="geometry" />
        </mxCell>
        <mxCell id="k3zc3vzF9cJD3p0FZX6q-18" value="" style="line;strokeWidth=1;fillColor=none;align=left;verticalAlign=middle;spacingTop=-1;spacingLeft=3;spacingRight=3;rotatable=0;labelPosition=right;points=[];portConstraint=eastwest;" vertex="1" parent="k3zc3vzF9cJD3p0FZX6q-16">
          <mxGeometry y="90" width="240" height="8" as="geometry" />
        </mxCell>
        <mxCell id="k3zc3vzF9cJD3p0FZX6q-19" value="+ getters: enum&#xa;+ setters(enum): void" style="text;strokeColor=none;fillColor=none;align=left;verticalAlign=top;spacingLeft=4;spacingRight=4;overflow=hidden;rotatable=0;points=[[0,0.5],[1,0.5]];portConstraint=eastwest;" vertex="1" parent="k3zc3vzF9cJD3p0FZX6q-16">
          <mxGeometry y="98" width="240" height="72" as="geometry" />
        </mxCell>
        <mxCell id="k3zc3vzF9cJD3p0FZX6q-22" value="PurchaseAmountRange" style="swimlane;fontStyle=1;align=center;verticalAlign=top;childLayout=stackLayout;horizontal=1;startSize=26;horizontalStack=0;resizeParent=1;resizeParentMax=0;resizeLast=0;collapsible=1;marginBottom=0;" vertex="1" parent="1">
          <mxGeometry x="550" y="300" width="190" height="170" as="geometry" />
        </mxCell>
        <mxCell id="k3zc3vzF9cJD3p0FZX6q-23" value="+ minAmount : double&#xa;+ maxAmount: double" style="text;strokeColor=none;fillColor=none;align=left;verticalAlign=top;spacingLeft=4;spacingRight=4;overflow=hidden;rotatable=0;points=[[0,0.5],[1,0.5]];portConstraint=eastwest;" vertex="1" parent="k3zc3vzF9cJD3p0FZX6q-22">
          <mxGeometry y="26" width="190" height="64" as="geometry" />
        </mxCell>
        <mxCell id="k3zc3vzF9cJD3p0FZX6q-24" value="" style="line;strokeWidth=1;fillColor=none;align=left;verticalAlign=middle;spacingTop=-1;spacingLeft=3;spacingRight=3;rotatable=0;labelPosition=right;points=[];portConstraint=eastwest;" vertex="1" parent="k3zc3vzF9cJD3p0FZX6q-22">
          <mxGeometry y="90" width="190" height="8" as="geometry" />
        </mxCell>
        <mxCell id="k3zc3vzF9cJD3p0FZX6q-25" value="+ getters: double&#xa;+ setters(double): void" style="text;strokeColor=none;fillColor=none;align=left;verticalAlign=top;spacingLeft=4;spacingRight=4;overflow=hidden;rotatable=0;points=[[0,0.5],[1,0.5]];portConstraint=eastwest;" vertex="1" parent="k3zc3vzF9cJD3p0FZX6q-22">
          <mxGeometry y="98" width="190" height="72" as="geometry" />
        </mxCell>
      </root>
    </mxGraphModel>
  </diagram>
</mxfile>
